<svg xmlns="http://www.w3.org/2000/svg" width="1200" height="148" viewBox="0 0 1200 148">
<rect width="1200" height="148" rx="16" fill="#0d1117"/>
<rect x="1" y="1" width="1198" height="146" rx="15" fill="none" stroke="#30363d"/>
<text x="28" y="33" fill="#58d8ff" font-size="19" font-weight="700" font-family="ui-monospace, SFMono-Regular, Consolas, monospace">&gt; SIGNAL PATH</text>
<g font-family="ui-monospace, SFMono-Regular, Consolas, monospace" font-size="15">
<rect x="28" y="55" width="150" height="62" rx="10" fill="#111820" stroke="#58d8ff"/><text x="72" y="92" fill="#e6edf3">Hardware</text>
<text x="194" y="93" fill="#58d8ff" font-size="23">→</text>
<rect x="226" y="55" width="178" height="62" rx="10" fill="#111820" stroke="#58d8ff"/><text x="258" y="81" fill="#e6edf3">USB / BLE</text><text x="272" y="104" fill="#b1bac4">CAT / IQ</text>
<text x="419" y="93" fill="#58d8ff" font-size="23">→</text>
<rect x="452" y="55" width="184" height="62" rx="10" fill="#111820" stroke="#58d8ff"/><text x="488" y="81" fill="#e6edf3">Protocol</text><text x="497" y="104" fill="#b1bac4">Analysis</text>
<text x="652" y="93" fill="#58d8ff" font-size="23">→</text>
<rect x="685" y="55" width="210" height="62" rx="10" fill="#111820" stroke="#58d8ff"/><text x="721" y="81" fill="#e6edf3">Systems / App</text><text x="765" y="104" fill="#b1bac4">Layer</text>
<text x="911" y="93" fill="#58d8ff" font-size="23">→</text>
<rect x="944" y="55" width="228" height="62" rx="10" fill="#111820" stroke="#58d8ff"/><text x="983" y="81" fill="#e6edf3">Desktop Tools</text><text x="991" y="104" fill="#b1bac4">System Software</text>
</g>
</svg>